# xmcd
#
# Track frame offsets: 
#        150
#        22548
#        43270
#        64971
#        81534
#        101334
#        121697
#        141083
#        161911
#        180873
#        201242
#
# Disc length: 2954 seconds
#
# Revision: 0
# Processed by: cddbd v1.5.1PL2 Copyright (c) Steve Scherf et al.
# Submitted via: ExactAudioCopy v0.95a4
#
DISCID=8d0b880b
DTITLE=Elias Martinez - Atrevete A Quererme
DYEAR=2006
DGENRE=Latin
TTITLE0=Tu Amor Me Hace Bien
TTITLE1=Dile Que Vuelva
TTITLE2=Amor Imposible
TTITLE3=Ya Te Olvide
TTITLE4=Tonto De Mi
TTITLE5=Atrevete A Quererme
TTITLE6=Sera Un Error
TTITLE7=Hoy Que Te Vas
TTITLE8=Que Haras Con Tenerme
TTITLE9=Dame Un Consejo
TTITLE10=La Bilirrubina
EXTD=
EXTT0=
EXTT1=
EXTT2=
EXTT3=
EXTT4=
EXTT5=
EXTT6=
EXTT7=
EXTT8=
EXTT9=
EXTT10=
PLAYORDER=
